<svg xmlns="http://www.w3.org/2000/svg" version="1.1" xmlns:xlink="http://www.w3.org/1999/xlink" width="72" height="72"><svg xmlns="http://www.w3.org/2000/svg" version="1.1" xmlns:xlink="http://www.w3.org/1999/xlink" width="72" height="72"><svg width="72" height="72" viewBox="0 0 72 72" fill="none" xmlns="http://www.w3.org/2000/svg">
<rect width="72" height="72" rx="12" fill="url(#paint0_linear_8_189)"></rect>
<path d="M59.375 32.9375C59.375 34.7917 59.1458 36.4479 58.6875 37.9062C58.2292 39.3646 57.6042 40.6562 56.8125 41.7812C56.0417 42.8854 55.1458 43.8333 54.125 44.625C53.1042 45.4167 52.0312 46.0625 50.9062 46.5625C49.8021 47.0625 48.6771 47.4271 47.5312 47.6562C46.4062 47.8854 45.3438 48 44.3438 48H25.9688V39.875H44.3438C45.3854 39.7917 46.3229 39.5833 47.1562 39.25C48.0104 38.8958 48.7396 38.4271 49.3438 37.8438C49.9479 37.2604 50.4167 36.5625 50.75 35.75C51.0833 34.9167 51.25 33.9792 51.25 32.9375V29.25C51.1458 28.2292 50.9271 27.2917 50.5938 26.4375C50.2604 25.5833 49.8021 24.8542 49.2188 24.25C48.6562 23.6458 47.9688 23.1771 47.1562 22.8438C46.3438 22.4896 45.4062 22.3125 44.3438 22.3125H26.0312C24.9479 22.3125 24.125 22.5938 23.5625 23.1562C23 23.7188 22.7188 24.5312 22.7188 25.5938V59H14.5938V25.5938C14.5938 23.5104 14.9688 21.7396 15.7188 20.2812C16.4896 18.8229 17.4375 17.6458 18.5625 16.75C19.7083 15.8542 20.9479 15.2083 22.2812 14.8125C23.6146 14.3958 24.8438 14.1875 25.9688 14.1875H44.3438C46.1771 14.1875 47.8229 14.4271 49.2812 14.9062C50.7396 15.3646 52.0208 15.9896 53.125 16.7812C54.25 17.5521 55.1979 18.4479 55.9688 19.4688C56.7604 20.4896 57.4062 21.5625 57.9062 22.6875C58.4271 23.7917 58.8021 24.9167 59.0312 26.0625C59.2604 27.1875 59.375 28.25 59.375 29.25V32.9375Z" fill="black"></path>
<path d="M56.8125 41.7812L56.4036 41.4935L56.4025 41.495L56.8125 41.7812ZM50.9062 46.5625L50.7032 46.1056L50.7 46.107L50.9062 46.5625ZM47.5312 47.6562L47.4332 47.166L47.4314 47.1663L47.5312 47.6562ZM25.9688 48H25.4688V48.5H25.9688V48ZM25.9688 39.875V39.375H25.4688V39.875H25.9688ZM44.3438 39.875V40.375H44.3637L44.3836 40.3734L44.3438 39.875ZM47.1562 39.25L47.342 39.7143L47.3478 39.7119L47.1562 39.25ZM50.75 35.75L51.2126 35.9398L51.2142 35.9357L50.75 35.75ZM51.25 29.25H51.75V29.2246L51.7474 29.1992L51.25 29.25ZM50.5938 26.4375L51.0595 26.2557L50.5938 26.4375ZM49.2188 24.25L48.8527 24.5908L48.8591 24.5973L49.2188 24.25ZM47.1562 22.8438L46.9564 23.3022L46.9665 23.3063L47.1562 22.8438ZM22.7188 59V59.5H23.2188V59H22.7188ZM14.5938 59H14.0938V59.5H14.5938V59ZM15.7188 20.2812L15.2767 20.0476L15.2741 20.0526L15.7188 20.2812ZM18.5625 16.75L18.2545 16.3561L18.251 16.3589L18.5625 16.75ZM22.2812 14.8125L22.4236 15.2919L22.4304 15.2897L22.2812 14.8125ZM49.2812 14.9062L49.1252 15.3813L49.1313 15.3832L49.2812 14.9062ZM53.125 16.7812L52.8336 17.1877L52.8424 17.1937L53.125 16.7812ZM55.9688 19.4688L55.5697 19.7701L55.5736 19.7752L55.9688 19.4688ZM57.9062 22.6875L57.4492 22.8906L57.454 22.9008L57.9062 22.6875ZM59.0312 26.0625L58.541 26.1606L58.5413 26.1623L59.0312 26.0625ZM59.375 32.9375H58.875C58.875 34.7513 58.6507 36.3556 58.2105 37.7563L58.6875 37.9062L59.1645 38.0562C59.6409 36.5403 59.875 34.8321 59.875 32.9375H59.375ZM58.6875 37.9062L58.2105 37.7563C57.7659 39.1709 57.1625 40.4151 56.4036 41.4935L56.8125 41.7812L57.2214 42.069C58.0458 40.8974 58.6924 39.5583 59.1645 38.0562L58.6875 37.9062ZM56.8125 41.7812L56.4025 41.495C55.6593 42.5597 54.7979 43.4704 53.8186 44.2299L54.125 44.625L54.4314 45.0201C55.4937 44.1963 56.424 43.2112 57.2225 42.0675L56.8125 41.7812ZM54.125 44.625L53.8186 44.2299C52.828 44.9981 51.7896 45.6227 50.7032 46.1056L50.9062 46.5625L51.1093 47.0194C52.2729 46.5023 53.3803 45.8352 54.4314 45.0201L54.125 44.625ZM50.9062 46.5625L50.7 46.107C49.6292 46.5919 48.5404 46.9445 47.4332 47.166L47.5312 47.6562L47.6293 48.1465C48.8138 47.9096 49.975 47.5331 51.1125 47.018L50.9062 46.5625ZM47.5312 47.6562L47.4314 47.1663C46.3346 47.3897 45.3057 47.5 44.3438 47.5V48V48.5C45.3818 48.5 46.4779 48.3811 47.6311 48.1462L47.5312 47.6562ZM44.3438 48V47.5H25.9688V48V48.5H44.3438V48ZM25.9688 48H26.4688V39.875H25.9688H25.4688V48H25.9688ZM25.9688 39.875V40.375H44.3438V39.875V39.375H25.9688V39.875ZM44.3438 39.875L44.3836 40.3734C45.4673 40.2867 46.4551 40.069 47.3419 39.7142L47.1562 39.25L46.9706 38.7858C46.1908 39.0977 45.3035 39.2966 44.3039 39.3766L44.3438 39.875ZM47.1562 39.25L47.3478 39.7119C48.2539 39.3361 49.0375 38.8345 49.691 38.2035L49.3438 37.8438L48.9965 37.484C48.4417 38.0197 47.7669 38.4555 46.9647 38.7881L47.1562 39.25ZM49.3438 37.8438L49.691 38.2035C50.3473 37.5699 50.8542 36.8133 51.2126 35.9398L50.75 35.75L50.2874 35.5602C49.9791 36.3117 49.5486 36.951 48.9965 37.484L49.3438 37.8438ZM50.75 35.75L51.2142 35.9357C51.5747 35.0346 51.75 34.0327 51.75 32.9375H51.25H50.75C50.75 33.9256 50.592 34.7987 50.2858 35.5643L50.75 35.75ZM51.25 32.9375H51.75V29.25H51.25H50.75V32.9375H51.25ZM51.25 29.25L51.7474 29.1992C51.6392 28.1388 51.4111 27.1566 51.0595 26.2557L50.5938 26.4375L50.128 26.6193C50.4431 27.4267 50.6525 28.3196 50.7526 29.3008L51.25 29.25ZM50.5938 26.4375L51.0595 26.2557C50.7044 25.3456 50.2118 24.5587 49.5784 23.9027L49.2188 24.25L48.8591 24.5973C49.3923 25.1496 49.8165 25.8211 50.128 26.6193L50.5938 26.4375ZM49.2188 24.25L49.5847 23.9093C48.9699 23.2489 48.221 22.7401 47.346 22.3812L47.1562 22.8438L46.9665 23.3063C47.7165 23.614 48.3426 24.0428 48.8528 24.5907L49.2188 24.25ZM47.1562 22.8438L47.356 22.3854C46.4693 21.9989 45.4616 21.8125 44.3438 21.8125V22.3125V22.8125C45.3509 22.8125 46.2182 22.9803 46.9565 23.3021L47.1562 22.8438ZM44.3438 22.3125V21.8125H26.0312V22.3125V22.8125H44.3438V22.3125ZM26.0312 22.3125V21.8125C24.8645 21.8125 23.8951 22.1166 23.2089 22.8027L23.5625 23.1562L23.9161 23.5098C24.3549 23.0709 25.0313 22.8125 26.0312 22.8125V22.3125ZM23.5625 23.1562L23.2089 22.8027C22.5245 23.4871 22.2188 24.4446 22.2188 25.5938H22.7188H23.2188C23.2188 24.6179 23.4755 23.9504 23.9161 23.5098L23.5625 23.1562ZM22.7188 25.5938H22.2188V59H22.7188H23.2188V25.5938H22.7188ZM22.7188 59V58.5H14.5938V59V59.5H22.7188V59ZM14.5938 59H15.0938V25.5938H14.5938H14.0938V59H14.5938ZM14.5938 25.5938H15.0938C15.0938 23.569 15.4583 21.881 16.1634 20.5099L15.7188 20.2812L15.2741 20.0526C14.4792 21.5982 14.0938 23.4518 14.0938 25.5938H14.5938ZM15.7188 20.2812L16.1608 20.5149C16.9041 19.1086 17.8102 17.9882 18.874 17.1411L18.5625 16.75L18.251 16.3589C17.0648 17.3035 16.075 18.5372 15.2767 20.0476L15.7188 20.2812ZM18.5625 16.75L18.8705 17.1439C19.9692 16.2849 21.153 15.669 22.4235 15.2918L22.2812 14.8125L22.139 14.3332C20.7428 14.7477 19.4475 15.4235 18.2545 16.3561L18.5625 16.75ZM22.2812 14.8125L22.4304 15.2897C23.7266 14.8847 24.9048 14.6875 25.9688 14.6875V14.1875V13.6875C24.7827 13.6875 23.5026 13.907 22.1321 14.3353L22.2812 14.8125ZM25.9688 14.1875V14.6875H44.3438V14.1875V13.6875H25.9688V14.1875ZM44.3438 14.1875V14.6875C46.1341 14.6875 47.7259 14.9215 49.1252 15.3813L49.2812 14.9062L49.4373 14.4312C47.9199 13.9327 46.2201 13.6875 44.3438 13.6875V14.1875ZM49.2812 14.9062L49.1313 15.3832C50.5453 15.8276 51.7776 16.4304 52.8337 17.1876L53.125 16.7812L53.4163 16.3749C52.2641 15.5487 50.9338 14.9015 49.4312 14.4293L49.2812 14.9062ZM53.125 16.7812L52.8424 17.1937C53.9258 17.9361 54.8335 18.7951 55.5697 19.7701L55.9688 19.4688L56.3678 19.1674C55.5623 18.1007 54.5742 17.1681 53.4076 16.3688L53.125 16.7812ZM55.9688 19.4688L55.5736 19.7752C56.3418 20.7657 56.9665 21.8041 57.4493 22.8906L57.9062 22.6875L58.3632 22.4844C57.846 21.3209 57.179 20.2134 56.3639 19.1623L55.9688 19.4688ZM57.9062 22.6875L57.454 22.9008C57.9583 23.9699 58.3201 25.0563 58.541 26.1606L59.0312 26.0625L59.5215 25.9644C59.2841 24.777 58.8958 23.6134 58.3585 22.4742L57.9062 22.6875ZM59.0312 26.0625L58.5413 26.1623C58.7647 27.2592 58.875 28.288 58.875 29.25H59.375H59.875C59.875 28.212 59.7561 27.1158 59.5212 25.9627L59.0312 26.0625ZM59.375 29.25H58.875V32.9375H59.375H59.875V29.25H59.375Z" fill="#333333"></path>
<defs>
<linearGradient id="paint0_linear_8_189" x1="12.5" y1="13" x2="62" y2="62.5" gradientUnits="userSpaceOnUse">
<stop stop-color="#FBC02D"></stop>
<stop offset="1" stop-color="#A26003"></stop>
</linearGradient>
</defs>
</svg></svg><style>@media (prefers-color-scheme: light) { :root { filter: none; } }
@media (prefers-color-scheme: dark) { :root { filter: none; } }
</style></svg>