<svg width="550" height="550" viewBox="0 0 550 550" fill="none" xmlns="http://www.w3.org/2000/svg">
<rect width="550" height="550" rx="100" fill="url(#paint0_linear_1_34)"/>
<path d="M75 256C75 247.163 82.1634 240 91 240H139C147.837 240 155 247.163 155 256V424C155 432.837 147.837 440 139 440H91C82.1634 440 75 432.837 75 424V256Z" fill="#2A2A2A"/>
<path d="M395 256C395 247.163 402.163 240 411 240H459C467.837 240 475 247.163 475 256V424C475 432.837 467.837 440 459 440H411C402.163 440 395 432.837 395 424V256Z" fill="#2A2A2A"/>
<rect x="165" y="240" width="220" height="30" rx="10" fill="#2A2A2A"/>
<rect x="165" y="280" width="220" height="30" rx="10" fill="#2A2A2A"/>
<rect x="165" y="320" width="220" height="30" rx="10" fill="#2A2A2A"/>
<rect x="165" y="360" width="220" height="30" rx="10" fill="#2A2A2A"/>
<path fill-rule="evenodd" clip-rule="evenodd" d="M469 110C477.837 110 485 117.163 485 126V214C485 222.837 477.837 230 469 230H81C72.1634 230 65 222.837 65 214V126C65 117.163 72.1634 110 81 110H469ZM108 145C103.582 145 100 148.582 100 153V187C100 191.418 103.582 195 108 195H142C146.418 195 150 191.418 150 187V153C150 148.582 146.418 145 142 145H108Z" fill="#2A2A2A"/>
<defs>
<linearGradient id="paint0_linear_1_34" x1="-145.2" y1="-128.15" x2="693" y2="707.3" gradientUnits="userSpaceOnUse">
<stop offset="0.1875" stop-color="#FFCD36"/>
<stop offset="0.831731" stop-color="#CC7523"/>
</linearGradient>
</defs>
</svg>
